Coda-Heavy.ufo
<glyph name="dollar" format="1">
  <advance width="1434"/>
  <unicode hex="0024"/>
  <outline>
    <contour>
      <point x="600" y="1031" type="line" smooth="no"/>
      <point x="627" y="1025"/>
      <point x="655" y="1018"/>
      <point x="685" y="1012" type="curve" smooth="no"/>
      <point x="685" y="1283" type="line" smooth="no"/>
      <point x="600" y="1283" type="line" smooth="no"/>
    </contour>
    <contour>
      <point x="847" y="556" type="line" smooth="no"/>
      <point x="764" y="572" type="line" smooth="no"/>
      <point x="764" y="283" type="line" smooth="no"/>
      <point x="847" y="283" type="line" smooth="no"/>
    </contour>
    <contour>
      <point x="685" y="-168" type="line" smooth="no"/>
      <point x="685" y="22" type="line" smooth="no"/>
      <point x="533" y="23"/>
      <point x="406" y="34"/>
      <point x="301" y="71" type="curve" smooth="yes"/>
      <point x="149" y="125"/>
      <point x="89" y="239"/>
      <point x="101" y="482" type="curve" smooth="no"/>
      <point x="600" y="450" type="line" smooth="no"/>
      <point x="600" y="283" type="line" smooth="no"/>
      <point x="685" y="283" type="line" smooth="no"/>
      <point x="685" y="586" type="line" smooth="no"/>
      <point x="392" y="639"/>
      <point x="70" y="711"/>
      <point x="70" y="1080" type="curve" smooth="yes"/>
      <point x="70" y="1462"/>
      <point x="338" y="1538"/>
      <point x="685" y="1544" type="curve" smooth="no"/>
      <point x="685" y="1730" type="line" smooth="no"/>
      <point x="764" y="1730" type="line" smooth="no"/>
      <point x="764" y="1545" type="line" smooth="no"/>
      <point x="914" y="1544"/>
      <point x="1040" y="1533"/>
      <point x="1145" y="1500" type="curve" smooth="no"/>
      <point x="1344" y="1435"/>
      <point x="1357" y="1282"/>
      <point x="1346" y="1092" type="curve" smooth="no"/>
      <point x="847" y="1122" type="line" smooth="no"/>
      <point x="847" y="1283" type="line" smooth="no"/>
      <point x="764" y="1283" type="line" smooth="no"/>
      <point x="764" y="997" type="line" smooth="no"/>
      <point x="1048" y="942"/>
      <point x="1378" y="873"/>
      <point x="1378" y="510" type="curve" smooth="yes"/>
      <point x="1378" y="122"/>
      <point x="1147" y="30"/>
      <point x="764" y="23" type="curve" smooth="no"/>
      <point x="764" y="-168" type="line" smooth="no"/>
    </contour>
  </outline>
</glyph>
<glyph name="ampersand" format="1">
  <advance width="1653"/>
  <unicode hex="0026"/>
  <outline>
    <contour>
      <point x="359" y="861" type="line" smooth="no"/>
      <point x="247" y="873" type="line" smooth="yes"/>
      <point x="180" y="880"/>
      <point x="84" y="958"/>
      <point x="84" y="1198" type="curve" smooth="yes"/>
      <point x="84" y="1594"/>
      <point x="453" y="1632"/>
      <point x="806" y="1632" type="curve" smooth="yes"/>
      <point x="1220" y="1632"/>
      <point x="1442" y="1522"/>
      <point x="1442" y="1238" type="curve" smooth="yes"/>
      <point x="1442" y="1221"/>
      <point x="1441" y="1203"/>
      <point x="1438" y="1184" type="curve" smooth="no"/>
      <point x="893" y="1184" type="line" smooth="no"/>
      <point x="893" y="1392" type="line" smooth="no"/>
      <point x="687" y="1392" type="line" smooth="no"/>
      <point x="687" y="929" type="line" smooth="no"/>
      <point x="896" y="929" type="line" smooth="no"/>
      <point x="896" y="1068" type="line" smooth="no"/>
      <point x="1442" y="1068" type="line" smooth="no"/>
      <point x="1442" y="929" type="line" smooth="no"/>
      <point x="1593" y="929" type="line" smooth="no"/>
      <point x="1593" y="736" type="line" smooth="no"/>
      <point x="1442" y="736" type="line" smooth="no"/>
      <point x="1442" y="513" type="line" smooth="yes"/>
      <point x="1442" y="75"/>
      <point x="1312" y="-40"/>
      <point x="766" y="-40" type="curve" smooth="yes"/>
      <point x="361" y="-40"/>
      <point x="85" y="16"/>
      <point x="85" y="456" type="curve" smooth="yes"/>
      <point x="85" y="569"/>
      <point x="126" y="795"/>
      <point x="247" y="809" type="curve" smooth="yes"/>
      <point x="359" y="822" type="line" smooth="no"/>
    </contour>
    <contour>
      <point x="896" y="224" type="line" smooth="no"/>
      <point x="896" y="736" type="line" smooth="no"/>
      <point x="687" y="736" type="line" smooth="no"/>
      <point x="687" y="224" type="line" smooth="no"/>
    </contour>
  </outline>
</glyph>
<glyph name="hyphen" format="1">
  <advance width="1328"/>
  <unicode hex="002d"/>
  <outline>
    <contour>
      <point x="1165" y="811" type="line" smooth="no"/>
      <point x="1165" y="478" type="line" smooth="no"/>
      <point x="164" y="478" type="line" smooth="no"/>
      <point x="164" y="811" type="line" smooth="no"/>
    </contour>
  </outline>
</glyph>
<glyph name="two" format="1">
  <advance width="1403"/>
  <unicode hex="0032"/>
  <outline>
    <contour>
      <point x="78" y="1064" type="line" smooth="no"/>
      <point x="77" y="1087"/>
      <point x="76" y="1106"/>
      <point x="76" y="1124" type="curve" smooth="yes"/>
      <point x="76" y="1536"/>
      <point x="347" y="1633"/>
      <point x="718" y="1633" type="curve" smooth="yes"/>
      <point x="1139" y="1633"/>
      <point x="1349" y="1500"/>
      <point x="1349" y="1125" type="curve" smooth="yes"/>
      <point x="1349" y="776"/>
      <point x="1076" y="650"/>
      <point x="858" y="545" type="curve" smooth="yes"/>
      <point x="752" y="494"/>
      <point x="630" y="423"/>
      <point x="630" y="301" type="curve" smooth="no"/>
      <point x="1277" y="301" type="line" smooth="no"/>
      <point x="1277" y="1" type="line" smooth="no"/>
      <point x="78" y="1" type="line" smooth="no"/>
      <point x="78" y="201" type="line" smooth="yes"/>
      <point x="78" y="599"/>
      <point x="289" y="758"/>
      <point x="573" y="890" type="curve" smooth="no"/>
      <point x="667" y="936"/>
      <point x="782" y="989"/>
      <point x="782" y="1086" type="curve" smooth="yes"/>
      <point x="782" y="1358" type="line" smooth="no"/>
      <point x="630" y="1358" type="line" smooth="no"/>
      <point x="630" y="1064" type="line" smooth="no"/>
    </contour>
  </outline>
</glyph>
<glyph name="three" format="1">
  <advance width="1436"/>
  <unicode hex="0033"/>
  <outline>
    <contour>
      <point x="714" y="1632" type="curve" smooth="yes"/>
      <point x="1147" y="1632"/>
      <point x="1364" y="1506"/>
      <point x="1364" y="1113" type="curve" smooth="yes"/>
      <point x="1364" y="965"/>
      <point x="1284" y="869"/>
      <point x="1163" y="820" type="curve" smooth="no"/>
      <point x="1299" y="770"/>
      <point x="1366" y="661"/>
      <point x="1366" y="522" type="curve" smooth="yes"/>
      <point x="1366" y="79"/>
      <point x="1111" y="-39"/>
      <point x="716" y="-39" type="curve" smooth="yes"/>
      <point x="270" y="-39"/>
      <point x="71" y="142"/>
      <point x="71" y="517" type="curve" smooth="yes"/>
      <point x="71" y="548"/>
      <point x="72" y="580"/>
      <point x="75" y="613" type="curve" smooth="no"/>
      <point x="627" y="613" type="line" smooth="no"/>
      <point x="627" y="235" type="line" smooth="no"/>
      <point x="799" y="235" type="line" smooth="no"/>
      <point x="799" y="707" type="line" smooth="no"/>
      <point x="540" y="707" type="line" smooth="no"/>
      <point x="540" y="931" type="line" smooth="no"/>
      <point x="799" y="931" type="line" smooth="no"/>
      <point x="799" y="1361" type="line" smooth="no"/>
      <point x="627" y="1361" type="line" smooth="no"/>
      <point x="627" y="1024" type="line" smooth="no"/>
      <point x="75" y="1024" type="line" smooth="no"/>
      <point x="73" y="1053"/>
      <point x="72" y="1081"/>
      <point x="72" y="1108" type="curve" smooth="yes"/>
      <point x="72" y="1503"/>
      <point x="293" y="1632"/>
    </contour>
  </outline>
</glyph>
<glyph name="six" format="1">
  <advance width="1448"/>
  <unicode hex="0036"/>
  <outline>
    <contour>
      <point x="718" y="-39" type="curve" smooth="no"/>
      <point x="312" y="-39"/>
      <point x="85" y="93"/>
      <point x="85" y="476" type="curve" smooth="yes"/>
      <point x="85" y="1056" type="line" smooth="yes"/>
      <point x="85" y="1496"/>
      <point x="312" y="1632"/>
      <point x="717" y="1632" type="curve" smooth="yes"/>
      <point x="966" y="1632"/>
      <point x="1329" y="1608"/>
      <point x="1329" y="1237" type="curve" smooth="yes"/>
      <point x="1329" y="1208"/>
      <point x="1331" y="1183"/>
      <point x="1331" y="1158" type="curve" smooth="no"/>
      <point x="800" y="1158" type="line" smooth="no"/>
      <point x="800" y="1369" type="line" smooth="no"/>
      <point x="637" y="1369" type="line" smooth="no"/>
      <point x="637" y="1068" type="line" smooth="no"/>
      <point x="761" y="1068" type="line" smooth="yes"/>
      <point x="1223" y="1068"/>
      <point x="1382" y="941"/>
      <point x="1382" y="523" type="curve" smooth="yes"/>
      <point x="1382" y="62"/>
      <point x="1130" y="-36"/>
    </contour>
    <contour>
      <point x="636" y="236" type="line" smooth="no"/>
      <point x="816" y="236" type="line" smooth="no"/>
      <point x="816" y="798" type="line" smooth="no"/>
      <point x="636" y="798" type="line" smooth="no"/>
    </contour>
  </outline>
</glyph>
<glyph name="seven" format="1">
  <advance width="991"/>
  <unicode hex="0037"/>
  <outline>
    <contour>
      <point x="942" y="1595" type="line" smooth="no"/>
      <point x="942" y="1351" type="line" smooth="no"/>
      <point x="716" y="0" type="line" smooth="no"/>
      <point x="112" y="0" type="line" smooth="no"/>
      <point x="334" y="1354" type="line" smooth="no"/>
      <point x="40" y="1354" type="line" smooth="no"/>
      <point x="40" y="1595" type="line" smooth="no"/>
    </contour>
  </outline>
</glyph>
<glyph name="eight" format="1">
  <advance width="1427"/>
  <unicode hex="0038"/>
  <outline>
    <contour>
      <point x="628" y="235" type="line" smooth="no"/>
      <point x="794" y="235" type="line" smooth="no"/>
      <point x="794" y="720" type="line" smooth="no"/>
      <point x="628" y="720" type="line" smooth="no"/>
    </contour>
    <contour>
      <point x="640" y="1355" type="line" smooth="no"/>
      <point x="640" y="960" type="line" smooth="no"/>
      <point x="794" y="960" type="line" smooth="no"/>
      <point x="794" y="1355" type="line" smooth="no"/>
    </contour>
    <contour>
      <point x="119" y="1181" type="curve" smooth="yes"/>
      <point x="119" y="1529"/>
      <point x="366" y="1631"/>
      <point x="719" y="1631" type="curve" smooth="yes"/>
      <point x="1071" y="1631"/>
      <point x="1310" y="1528"/>
      <point x="1310" y="1180" type="curve" smooth="yes"/>
      <point x="1310" y="1022"/>
      <point x="1265" y="898"/>
      <point x="1149" y="864" type="curve" smooth="no"/>
      <point x="1305" y="830"/>
      <point x="1368" y="671"/>
      <point x="1368" y="470" type="curve" smooth="yes"/>
      <point x="1368" y="34"/>
      <point x="1100" y="-40"/>
      <point x="721" y="-40" type="curve" smooth="yes"/>
      <point x="287" y="-40"/>
      <point x="64" y="75"/>
      <point x="64" y="470" type="curve" smooth="yes"/>
      <point x="64" y="608"/>
      <point x="88" y="818"/>
      <point x="251" y="864" type="curve" smooth="no"/>
      <point x="149" y="900"/>
      <point x="119" y="1035"/>
    </contour>
  </outline>
</glyph>
<glyph name="nine" format="1">
  <advance width="1445"/>
  <unicode hex="0039"/>
  <outline>
    <contour>
      <point x="68" y="1071" type="curve" smooth="yes"/>
      <point x="68" y="1551"/>
      <point x="325" y="1629"/>
      <point x="722" y="1629" type="curve" smooth="yes"/>
      <point x="1130" y="1629"/>
      <point x="1365" y="1508"/>
      <point x="1365" y="1116" type="curve" smooth="yes"/>
      <point x="1365" y="520" type="line" smooth="yes"/>
      <point x="1365" y="84"/>
      <point x="1131" y="-40"/>
      <point x="733" y="-40" type="curve" smooth="yes"/>
      <point x="490" y="-40"/>
      <point x="124" y="0"/>
      <point x="115" y="328" type="curve" smooth="yes"/>
      <point x="114" y="362"/>
      <point x="114" y="394"/>
      <point x="114" y="424" type="curve" smooth="no"/>
      <point x="645" y="424" type="line" smooth="no"/>
      <point x="645" y="225" type="line" smooth="no"/>
      <point x="803" y="225" type="line" smooth="no"/>
      <point x="803" y="508" type="line" smooth="no"/>
      <point x="576" y="508" type="line" smooth="yes"/>
      <point x="178" y="508"/>
      <point x="68" y="688"/>
    </contour>
    <contour>
      <point x="799" y="1358" type="line" smooth="no"/>
      <point x="628" y="1358" type="line" smooth="no"/>
      <point x="628" y="779" type="line" smooth="no"/>
      <point x="799" y="779" type="line" smooth="no"/>
    </contour>
  </outline>
</glyph>
<glyph name="question" format="1">
  <advance width="906"/>
  <unicode hex="003f"/>
  <outline>
    <contour>
      <point x="153" y="171" type="curve" smooth="yes"/>
      <point x="153" y="311"/>
      <point x="255" y="381"/>
      <point x="357" y="381" type="curve" smooth="yes"/>
      <point x="459" y="381"/>
      <point x="561" y="311"/>
      <point x="561" y="171" type="curve" smooth="yes"/>
      <point x="561" y="31"/>
      <point x="459" y="-39"/>
      <point x="357" y="-39" type="curve" smooth="yes"/>
      <point x="255" y="-39"/>
      <point x="153" y="31"/>
    </contour>
    <contour>
      <point x="417" y="567" type="curve" smooth="yes"/>
      <point x="412" y="524"/>
      <point x="382" y="510"/>
      <point x="355" y="510" type="curve" smooth="yes"/>
      <point x="314" y="510"/>
      <point x="294" y="536"/>
      <point x="294" y="582" type="curve" smooth="yes"/>
      <point x="294" y="814"/>
      <point x="412" y="979"/>
      <point x="439" y="1123" type="curve" smooth="yes"/>
      <point x="440" y="1132"/>
      <point x="441" y="1141"/>
      <point x="441" y="1150" type="curve" smooth="yes"/>
      <point x="441" y="1212"/>
      <point x="402" y="1264"/>
      <point x="299" y="1264" type="curve" smooth="yes"/>
      <point x="251" y="1264"/>
      <point x="188" y="1250"/>
      <point x="105" y="1215" type="curve" smooth="no"/>
      <point x="69" y="1562" type="line" smooth="no"/>
      <point x="222" y="1611"/>
      <point x="344" y="1632"/>
      <point x="440" y="1632" type="curve" smooth="yes"/>
      <point x="775" y="1632"/>
      <point x="873" y="1473"/>
      <point x="873" y="1313" type="curve" smooth="yes"/>
      <point x="873" y="1009"/>
      <point x="457" y="912"/>
    </contour>
  </outline>
</glyph>
<glyph name="A" format="1">
  <advance width="1550"/>
  <unicode hex="0041"/>
  <outline>
    <contour>
      <point x="782" y="1283" type="line" smooth="no"/>
      <point x="763" y="1283" type="line" smooth="no"/>
      <point x="686" y="576" type="line" smooth="no"/>
      <point x="864" y="576" type="line" smooth="no"/>
    </contour>
    <contour>
      <point x="668" y="366" type="line" smooth="no"/>
      <point x="613" y="0" type="line" smooth="no"/>
      <point x="27" y="0" type="line" smooth="no"/>
      <point x="319" y="1595" type="line" smooth="no"/>
      <point x="1226" y="1595" type="line" smooth="no"/>
      <point x="1523" y="0" type="line" smooth="no"/>
      <point x="936" y="0" type="line" smooth="no"/>
      <point x="882" y="366" type="line" smooth="no"/>
    </contour>
  </outline>
</glyph>
<glyph name="B" format="1">
  <advance width="1514"/>
  <unicode hex="0042"/>
  <outline>
    <contour>
      <point x="696" y="951" type="line" smooth="no"/>
      <point x="869" y="951" type="line" smooth="no"/>
      <point x="869" y="1358" type="line" smooth="no"/>
      <point x="696" y="1358" type="line" smooth="no"/>
    </contour>
    <contour>
      <point x="696" y="235" type="line" smooth="no"/>
      <point x="869" y="235" type="line" smooth="no"/>
      <point x="869" y="770" type="line" smooth="no"/>
      <point x="696" y="770" type="line" smooth="no"/>
    </contour>
    <contour>
      <point x="1098" y="873" type="curve" smooth="no"/>
      <point x="1098" y="860" type="line" smooth="no"/>
      <point x="1408" y="824"/>
      <point x="1478" y="647"/>
      <point x="1478" y="460" type="curve" smooth="yes"/>
      <point x="1478" y="91"/>
      <point x="1324" y="0"/>
      <point x="935" y="0" type="curve" smooth="yes"/>
      <point x="92" y="0" type="line" smooth="no"/>
      <point x="92" y="1595" type="line" smooth="no"/>
      <point x="939" y="1595" type="line" smooth="yes"/>
      <point x="1199" y="1595"/>
      <point x="1437" y="1551"/>
      <point x="1437" y="1219" type="curve" smooth="yes"/>
      <point x="1437" y="1019"/>
      <point x="1363" y="901"/>
    </contour>
  </outline>
</glyph>
<glyph name="F" format="1">
  <advance width="1080"/>
  <unicode hex="0046"/>
  <outline>
    <contour>
      <point x="1037" y="1595" type="line" smooth="no"/>
      <point x="1037" y="1346" type="line" smooth="no"/>
      <point x="696" y="1346" type="line" smooth="no"/>
      <point x="696" y="954" type="line" smooth="no"/>
      <point x="1014" y="954" type="line" smooth="no"/>
      <point x="1014" y="705" type="line" smooth="no"/>
      <point x="696" y="705" type="line" smooth="no"/>
      <point x="696" y="0" type="line" smooth="no"/>
      <point x="92" y="0" type="line" smooth="no"/>
      <point x="92" y="1595" type="line" smooth="no"/>
    </contour>
  </outline>
</glyph>
<glyph name="I" format="1">
  <advance width="788"/>
  <unicode hex="0049"/>
  <outline>
    <contour>
      <point x="696" y="1595" type="line" smooth="no"/>
      <point x="696" y="0" type="line" smooth="no"/>
      <point x="92" y="0" type="line" smooth="no"/>
      <point x="92" y="1595" type="line" smooth="no"/>
    </contour>
  </outline>
</glyph>
<glyph name="J" format="1">
  <advance width="923"/>
  <unicode hex="004a"/>
  <outline>
    <contour>
      <point x="831" y="1594" type="line" smooth="no"/>
      <point x="831" y="274" type="line" smooth="yes"/>
      <point x="831" y="-44"/>
      <point x="604" y="-159"/>
      <point x="310" y="-159" type="curve" smooth="yes"/>
      <point x="229" y="-159"/>
      <point x="142" y="-150"/>
      <point x="54" y="-134" type="curve" smooth="no"/>
      <point x="54" y="138" type="line" smooth="no"/>
      <point x="227" y="138" type="line" smooth="no"/>
      <point x="227" y="1594" type="line" smooth="no"/>
    </contour>
  </outline>
</glyph>
<glyph name="L" format="1">
  <advance width="1072"/>
  <unicode hex="004c"/>
  <outline>
    <contour>
      <point x="92" y="0" type="line" smooth="no"/>
      <point x="92" y="1595" type="line" smooth="no"/>
      <point x="696" y="1595" type="line" smooth="no"/>
      <point x="696" y="241" type="line" smooth="no"/>
      <point x="1037" y="241" type="line" smooth="no"/>
      <point x="1037" y="0" type="line" smooth="no"/>
    </contour>
  </outline>
</glyph>
<glyph name="R" format="1">
  <advance width="1527"/>
  <unicode hex="0052"/>
  <outline>
    <contour>
      <point x="696" y="881" type="line" smooth="no"/>
      <point x="869" y="881" type="line" smooth="no"/>
      <point x="869" y="1358" type="line" smooth="no"/>
      <point x="696" y="1358" type="line" smooth="no"/>
    </contour>
    <contour>
      <point x="1099" y="792" type="curve" smooth="no"/>
      <point x="1100" y="786" type="line" smooth="no"/>
      <point x="1383" y="754"/>
      <point x="1475" y="609"/>
      <point x="1475" y="437" type="curve" smooth="yes"/>
      <point x="1475" y="0" type="line" smooth="no"/>
      <point x="869" y="0" type="line" smooth="no"/>
      <point x="869" y="649" type="line" smooth="no"/>
      <point x="696" y="649" type="line" smooth="no"/>
      <point x="696" y="0" type="line" smooth="no"/>
      <point x="92" y="0" type="line" smooth="no"/>
      <point x="92" y="1595" type="line" smooth="no"/>
      <point x="1005" y="1595" type="line" smooth="yes"/>
      <point x="1294" y="1595"/>
      <point x="1459" y="1502"/>
      <point x="1459" y="1190" type="curve" smooth="yes"/>
      <point x="1459" y="968"/>
      <point x="1396" y="821"/>
    </contour>
  </outline>
</glyph>
<glyph name="T" format="1">
  <advance width="1319"/>
  <unicode hex="0054"/>
  <outline>
    <contour>
      <point x="1316" y="1595" type="line" smooth="no"/>
      <point x="1316" y="1326" type="line" smooth="no"/>
      <point x="960" y="1326" type="line" smooth="no"/>
      <point x="960" y="0" type="line" smooth="no"/>
      <point x="356" y="0" type="line" smooth="no"/>
      <point x="356" y="1326" type="line" smooth="no"/>
      <point x="3" y="1326" type="line" smooth="no"/>
      <point x="3" y="1595" type="line" smooth="no"/>
    </contour>
  </outline>
</glyph>
<glyph name="U" format="1">
  <advance width="1552"/>
  <unicode hex="0055"/>
  <outline>
    <contour>
      <point x="689" y="234" type="line" smooth="no"/>
      <point x="862" y="234" type="line" smooth="no"/>
      <point x="862" y="1594" type="line" smooth="no"/>
      <point x="1467" y="1594" type="line" smooth="no"/>
      <point x="1467" y="370" type="line" smooth="yes"/>
      <point x="1467" y="-4"/>
      <point x="1076" y="-39"/>
      <point x="774" y="-39" type="curve" smooth="yes"/>
      <point x="497" y="-39"/>
      <point x="85" y="-7"/>
      <point x="85" y="371" type="curve" smooth="yes"/>
      <point x="85" y="1595" type="line" smooth="no"/>
      <point x="689" y="1595" type="line" smooth="no"/>
    </contour>
  </outline>
</glyph>
<glyph name="X" format="1">
  <advance width="1493"/>
  <unicode hex="0058"/>
  <outline>
    <contour>
      <point x="563" y="0" type="line" smooth="no"/>
      <point x="15" y="0" type="line" smooth="no"/>
      <point x="322" y="802" type="line" smooth="no"/>
      <point x="15" y="1595" type="line" smooth="no"/>
      <point x="567" y="1595" type="line" smooth="no"/>
      <point x="740" y="1081" type="line" smooth="no"/>
      <point x="749" y="1081" type="line" smooth="no"/>
      <point x="927" y="1595" type="line" smooth="no"/>
      <point x="1478" y="1595" type="line" smooth="no"/>
      <point x="1168" y="802" type="line" smooth="no"/>
      <point x="1478" y="0" type="line" smooth="no"/>
      <point x="923" y="0" type="line" smooth="no"/>
      <point x="745" y="514" type="line" smooth="no"/>
      <point x="736" y="514" type="line" smooth="no"/>
    </contour>
  </outline>
</glyph>
<glyph name="Y" format="1">
  <advance width="1486"/>
  <unicode hex="0059"/>
  <outline>
    <contour>
      <point x="738" y="955" type="line" smooth="no"/>
      <point x="747" y="955" type="line" smooth="no"/>
      <point x="933" y="1595" type="line" smooth="no"/>
      <point x="1489" y="1595" type="line" smooth="no"/>
      <point x="1047" y="529" type="line" smooth="no"/>
      <point x="1047" y="0" type="line" smooth="no"/>
      <point x="442" y="0" type="line" smooth="no"/>
      <point x="442" y="539" type="line" smooth="no"/>
      <point x="-3" y="1595" type="line" smooth="no"/>
      <point x="557" y="1595" type="line" smooth="no"/>
    </contour>
  </outline>
</glyph>
<glyph name="Z" format="1">
  <advance width="1108"/>
  <unicode hex="005a"/>
  <outline>
    <contour>
      <point x="1013" y="1595" type="line" smooth="no"/>
      <point x="1006" y="1342" type="line" smooth="no"/>
      <point x="712" y="294" type="line" smooth="no"/>
      <point x="1063" y="294" type="line" smooth="no"/>
      <point x="1053" y="0" type="line" smooth="no"/>
      <point x="101" y="0" type="line" smooth="no"/>
      <point x="101" y="266" type="line" smooth="no"/>
      <point x="421" y="1304" type="line" smooth="no"/>
      <point x="65" y="1304" type="line" smooth="no"/>
      <point x="49" y="1595" type="line" smooth="no"/>
    </contour>
  </outline>
</glyph>
<glyph name="grave" format="1">
  <advance width="873"/>
  <unicode hex="0060"/>
  <outline>
    <contour>
      <point x="814" y="1480" type="curve" smooth="yes"/>
      <point x="838" y="1459"/>
      <point x="848" y="1438"/>
      <point x="848" y="1420" type="curve" smooth="yes"/>
      <point x="848" y="1391"/>
      <point x="820" y="1371"/>
      <point x="785" y="1371" type="curve" smooth="yes"/>
      <point x="775" y="1371"/>
      <point x="764" y="1372"/>
      <point x="753" y="1376" type="curve" smooth="yes"/>
      <point x="548" y="1438"/>
      <point x="261" y="1510"/>
      <point x="157" y="1570" type="curve" smooth="yes"/>
      <point x="76" y="1617"/>
      <point x="41" y="1687"/>
      <point x="41" y="1752" type="curve" smooth="yes"/>
      <point x="41" y="1846"/>
      <point x="112" y="1930"/>
      <point x="215" y="1930" type="curve" smooth="yes"/>
      <point x="253" y="1930"/>
      <point x="295" y="1919"/>
      <point x="340" y="1893" type="curve" smooth="yes"/>
      <point x="441" y="1835"/>
      <point x="651" y="1629"/>
    </contour>
  </outline>
</glyph>
<glyph name="a" format="1">
  <advance width="1450"/>
  <unicode hex="0061"/>
  <outline>
    <contour>
      <point x="629" y="653" type="line" smooth="no"/>
      <point x="629" y="200" type="line" smooth="no"/>
      <point x="795" y="200" type="line" smooth="no"/>
      <point x="795" y="653" type="line" smooth="no"/>
    </contour>
    <contour>
      <point x="1365" y="257" type="line" smooth="no"/>
      <point x="1366" y="162"/>
      <point x="1378" y="75"/>
      <point x="1394" y="1" type="curve" smooth="no"/>
      <point x="874" y="1" type="line" smooth="no"/>
      <point x="818" y="139" type="line" smooth="no"/>
      <point x="757" y="38"/>
      <point x="642" y="-30"/>
      <point x="478" y="-30" type="curve" smooth="yes"/>
      <point x="193" y="-30"/>
      <point x="57" y="107"/>
      <point x="57" y="388" type="curve" smooth="yes"/>
      <point x="57" y="693"/>
      <point x="219" y="824"/>
      <point x="529" y="824" type="curve" smooth="yes"/>
      <point x="636" y="824"/>
      <point x="722" y="807"/>
      <point x="795" y="783" type="curve" smooth="no"/>
      <point x="795" y="1106" type="line" smooth="no"/>
      <point x="656" y="1106" type="line" smooth="no"/>
      <point x="656" y="915" type="line" smooth="no"/>
      <point x="131" y="895" type="line" smooth="no"/>
      <point x="125" y="930"/>
      <point x="120" y="966"/>
      <point x="120" y="1005" type="curve" smooth="yes"/>
      <point x="120" y="1304"/>
      <point x="487" y="1327"/>
      <point x="724" y="1327" type="curve" smooth="yes"/>
      <point x="1031" y="1327"/>
      <point x="1365" y="1303"/>
      <point x="1365" y="952" type="curve" smooth="yes"/>
    </contour>
  </outline>
</glyph>
<glyph name="b" format="1">
  <advance width="1484"/>
  <unicode hex="0062"/>
  <outline>
    <contour>
      <point x="672" y="199" type="line" smooth="no"/>
      <point x="839" y="199" type="line" smooth="no"/>
      <point x="839" y="1105" type="line" smooth="no"/>
      <point x="672" y="1105" type="line" smooth="no"/>
    </contour>
    <contour>
      <point x="993" y="-30" type="curve" smooth="yes"/>
      <point x="848" y="-30"/>
      <point x="718" y="25"/>
      <point x="658" y="114" type="curve" smooth="no"/>
      <point x="621" y="0" type="line" smooth="no"/>
      <point x="101" y="0" type="line" smooth="no"/>
      <point x="101" y="1710" type="line" smooth="no"/>
      <point x="672" y="1710" type="line" smooth="no"/>
      <point x="672" y="1215" type="line" smooth="no"/>
      <point x="739" y="1292"/>
      <point x="846" y="1327"/>
      <point x="996" y="1327" type="curve" smooth="yes"/>
      <point x="1265" y="1327"/>
      <point x="1410" y="1205"/>
      <point x="1410" y="940" type="curve" smooth="yes"/>
      <point x="1410" y="377" type="line" smooth="yes"/>
      <point x="1410" y="106"/>
      <point x="1271" y="-30"/>
    </contour>
  </outline>
</glyph>
<glyph name="d" format="1">
  <advance width="1471"/>
  <unicode hex="0064"/>
  <outline>
    <contour>
      <point x="811" y="1105" type="line" smooth="no"/>
      <point x="644" y="1105" type="line" smooth="no"/>
      <point x="644" y="199" type="line" smooth="no"/>
      <point x="811" y="199" type="line" smooth="no"/>
    </contour>
    <contour>
      <point x="489" y="1327" type="curve" smooth="yes"/>
      <point x="639" y="1327"/>
      <point x="745" y="1292"/>
      <point x="812" y="1215" type="curve" smooth="no"/>
      <point x="812" y="1710" type="line" smooth="no"/>
      <point x="1383" y="1710" type="line" smooth="no"/>
      <point x="1383" y="0" type="line" smooth="no"/>
      <point x="863" y="0" type="line" smooth="no"/>
      <point x="826" y="114" type="line" smooth="no"/>
      <point x="764" y="26"/>
      <point x="637" y="-30"/>
      <point x="491" y="-30" type="curve" smooth="yes"/>
      <point x="213" y="-30"/>
      <point x="74" y="106"/>
      <point x="74" y="377" type="curve" smooth="yes"/>
      <point x="74" y="940" type="line" smooth="yes"/>
      <point x="74" y="1203"/>
      <point x="217" y="1327"/>
    </contour>
  </outline>
</glyph>
<glyph name="e" format="1">
  <advance width="1450"/>
  <unicode hex="0065"/>
  <outline>
    <contour>
      <point x="646" y="777" type="line" smooth="no"/>
      <point x="814" y="777" type="line" smooth="no"/>
      <point x="814" y="1105" type="line" smooth="no"/>
      <point x="646" y="1105" type="line" smooth="no"/>
    </contour>
    <contour>
      <point x="1384" y="483" type="line" smooth="no"/>
      <point x="1389" y="445"/>
      <point x="1392" y="412"/>
      <point x="1392" y="380" type="curve" smooth="yes"/>
      <point x="1392" y="74"/>
      <point x="1173" y="-30"/>
      <point x="731" y="-30" type="curve" smooth="yes"/>
      <point x="427" y="-30"/>
      <point x="74" y="-11"/>
      <point x="74" y="353" type="curve" smooth="yes"/>
      <point x="74" y="953" type="line" smooth="yes"/>
      <point x="74" y="1306"/>
      <point x="443" y="1327"/>
      <point x="729" y="1327" type="curve" smooth="yes"/>
      <point x="1022" y="1327"/>
      <point x="1384" y="1309"/>
      <point x="1384" y="954" type="curve" smooth="yes"/>
      <point x="1384" y="604" type="line" smooth="no"/>
      <point x="646" y="604" type="line" smooth="no"/>
      <point x="646" y="199" type="line" smooth="no"/>
      <point x="813" y="199" type="line" smooth="no"/>
      <point x="813" y="483" type="line" smooth="no"/>
    </contour>
  </outline>
</glyph>
<glyph name="f" format="1">
  <advance width="1118"/>
  <unicode hex="0066"/>
  <outline>
    <contour>
      <point x="225" y="1300" type="line" smooth="no"/>
      <point x="225" y="1624"/>
      <point x="407" y="1731"/>
      <point x="735" y="1731" type="curve" smooth="yes"/>
      <point x="857" y="1731"/>
      <point x="983" y="1719"/>
      <point x="1101" y="1683" type="curve" smooth="no"/>
      <point x="1101" y="1477" type="line" smooth="no"/>
      <point x="796" y="1477" type="line" smooth="no"/>
      <point x="796" y="1300" type="line" smooth="no"/>
      <point x="1110" y="1300" type="line" smooth="no"/>
      <point x="1110" y="1098" type="line" smooth="no"/>
      <point x="796" y="1098" type="line" smooth="no"/>
      <point x="796" y="0" type="line" smooth="no"/>
      <point x="225" y="0" type="line" smooth="no"/>
      <point x="225" y="1098" type="line" smooth="no"/>
      <point x="18" y="1098" type="line" smooth="no"/>
      <point x="18" y="1300" type="line" smooth="no"/>
    </contour>
  </outline>
</glyph>
<glyph name="h" format="1">
  <advance width="1494"/>
  <unicode hex="0068"/>
  <outline>
    <contour>
      <point x="993" y="1327" type="curve" smooth="yes"/>
      <point x="1262" y="1327"/>
      <point x="1410" y="1206"/>
      <point x="1410" y="945" type="curve" smooth="yes"/>
      <point x="1410" y="0" type="line" smooth="no"/>
      <point x="839" y="0" type="line" smooth="no"/>
      <point x="839" y="1105" type="line" smooth="no"/>
      <point x="672" y="1105" type="line" smooth="no"/>
      <point x="672" y="0" type="line" smooth="no"/>
      <point x="101" y="0" type="line" smooth="no"/>
      <point x="101" y="1710" type="line" smooth="no"/>
      <point x="672" y="1710" type="line" smooth="no"/>
      <point x="672" y="1210" type="line" smooth="no"/>
      <point x="729" y="1288"/>
      <point x="860" y="1327"/>
    </contour>
  </outline>
</glyph>
<glyph name="i" format="1">
  <advance width="751"/>
  <unicode hex="0069"/>
  <outline>
    <contour>
      <point x="661" y="1709" type="line" smooth="no"/>
      <point x="661" y="1425" type="line" smooth="no"/>
      <point x="90" y="1425" type="line" smooth="no"/>
      <point x="90" y="1709" type="line" smooth="no"/>
    </contour>
    <contour>
      <point x="661" y="0" type="line" smooth="no"/>
      <point x="90" y="0" type="line" smooth="no"/>
      <point x="90" y="1300" type="line" smooth="no"/>
      <point x="661" y="1300" type="line" smooth="no"/>
    </contour>
  </outline>
</glyph>
<glyph name="j" format="1">
  <advance width="827"/>
  <unicode hex="006a"/>
  <outline>
    <contour>
      <point x="737" y="1709" type="line" smooth="no"/>
      <point x="737" y="1425" type="line" smooth="no"/>
      <point x="165" y="1425" type="line" smooth="no"/>
      <point x="165" y="1709" type="line" smooth="no"/>
    </contour>
    <contour>
      <point x="737" y="94" type="line" smooth="yes"/>
      <point x="737" y="-199"/>
      <point x="573" y="-326"/>
      <point x="276" y="-326" type="curve" smooth="yes"/>
      <point x="167" y="-326"/>
      <point x="87" y="-321"/>
      <point x="6" y="-305" type="curve" smooth="no"/>
      <point x="-24" y="-66" type="line" smooth="no"/>
      <point x="165" y="-66" type="line" smooth="no"/>
      <point x="165" y="1300" type="line" smooth="no"/>
      <point x="737" y="1300" type="line" smooth="no"/>
    </contour>
  </outline>
</glyph>
<glyph name="k" format="1">
  <advance width="1520"/>
  <unicode hex="006b"/>
  <outline>
    <contour>
      <point x="101" y="0" type="line" smooth="no"/>
      <point x="101" y="1710" type="line" smooth="no"/>
      <point x="672" y="1710" type="line" smooth="no"/>
      <point x="672" y="798" type="line" smooth="no"/>
      <point x="941" y="1300" type="line" smooth="no"/>
      <point x="1527" y="1300" type="line" smooth="no"/>
      <point x="1196" y="690" type="line" smooth="no"/>
      <point x="1534" y="0" type="line" smooth="no"/>
      <point x="954" y="0" type="line" smooth="no"/>
      <point x="715" y="575" type="line" smooth="no"/>
      <point x="672" y="478" type="line" smooth="no"/>
      <point x="672" y="0" type="line" smooth="no"/>
    </contour>
  </outline>
</glyph>
<glyph name="l" format="1">
  <advance width="760"/>
  <unicode hex="006c"/>
  <outline>
    <contour>
      <point x="676" y="0" type="line" smooth="no"/>
      <point x="105" y="0" type="line" smooth="no"/>
      <point x="105" y="1710" type="line" smooth="no"/>
      <point x="676" y="1710" type="line" smooth="no"/>
    </contour>
  </outline>
</glyph>
<glyph name="m" format="1">
  <advance width="2196"/>
  <unicode hex="006d"/>
  <outline>
    <contour>
      <point x="1689" y="1327" type="curve" smooth="yes"/>
      <point x="1956" y="1327"/>
      <point x="2112" y="1202"/>
      <point x="2112" y="944" type="curve" smooth="yes"/>
      <point x="2112" y="0" type="line" smooth="no"/>
      <point x="1549" y="0" type="line" smooth="no"/>
      <point x="1549" y="1105" type="line" smooth="no"/>
      <point x="1376" y="1105" type="line" smooth="no"/>
      <point x="1382" y="1072"/>
      <point x="1383" y="1037"/>
      <point x="1383" y="1001" type="curve" smooth="yes"/>
      <point x="1383" y="0" type="line" smooth="no"/>
      <point x="826" y="0" type="line" smooth="no"/>
      <point x="826" y="1105" type="line" smooth="no"/>
      <point x="659" y="1105" type="line" smooth="no"/>
      <point x="659" y="0" type="line" smooth="no"/>
      <point x="96" y="0" type="line" smooth="no"/>
      <point x="96" y="1300" type="line" smooth="no"/>
      <point x="608" y="1300" type="line" smooth="no"/>
      <point x="645" y="1188" type="line" smooth="no"/>
      <point x="710" y="1276"/>
      <point x="854" y="1327"/>
      <point x="1003" y="1327" type="curve" smooth="yes"/>
      <point x="1159" y="1327"/>
      <point x="1274" y="1274"/>
      <point x="1342" y="1191" type="curve" smooth="no"/>
      <point x="1404" y="1281"/>
      <point x="1531" y="1327"/>
    </contour>
  </outline>
</glyph>
<glyph name="n" format="1">
  <advance width="1489"/>
  <unicode hex="006e"/>
  <outline>
    <contour>
      <point x="984" y="1327" type="curve" smooth="yes"/>
      <point x="1257" y="1326"/>
      <point x="1405" y="1195"/>
      <point x="1405" y="944" type="curve" smooth="yes"/>
      <point x="1405" y="0" type="line" smooth="no"/>
      <point x="834" y="0" type="line" smooth="no"/>
      <point x="834" y="1105" type="line" smooth="no"/>
      <point x="667" y="1105" type="line" smooth="no"/>
      <point x="667" y="0" type="line" smooth="no"/>
      <point x="96" y="0" type="line" smooth="no"/>
      <point x="96" y="1300" type="line" smooth="no"/>
      <point x="606" y="1300" type="line" smooth="no"/>
      <point x="643" y="1188" type="line" smooth="no"/>
      <point x="702" y="1271"/>
      <point x="834" y="1327"/>
    </contour>
  </outline>
</glyph>
<glyph name="p" format="1">
  <advance width="1480"/>
  <unicode hex="0070"/>
  <outline>
    <contour>
      <point x="667" y="199" type="line" smooth="no"/>
      <point x="834" y="199" type="line" smooth="no"/>
      <point x="834" y="1105" type="line" smooth="no"/>
      <point x="667" y="1105" type="line" smooth="no"/>
    </contour>
    <contour>
      <point x="986" y="-30" type="curve" smooth="yes"/>
      <point x="847" y="-30"/>
      <point x="728" y="8"/>
      <point x="667" y="87" type="curve" smooth="no"/>
      <point x="667" y="-410" type="line" smooth="no"/>
      <point x="96" y="-410" type="line" smooth="no"/>
      <point x="96" y="1300" type="line" smooth="no"/>
      <point x="586" y="1300" type="line" smooth="no"/>
      <point x="623" y="1188" type="line" smooth="no"/>
      <point x="690" y="1277"/>
      <point x="831" y="1327"/>
      <point x="983" y="1327" type="curve" smooth="yes"/>
      <point x="1259" y="1327"/>
      <point x="1406" y="1198"/>
      <point x="1406" y="926" type="curve" smooth="yes"/>
      <point x="1406" y="365" type="line" smooth="yes"/>
      <point x="1406" y="99"/>
      <point x="1260" y="-30"/>
    </contour>
  </outline>
</glyph>
<glyph name="r" format="1">
  <advance width="981"/>
  <unicode hex="0072"/>
  <outline>
    <contour>
      <point x="100" y="0" type="line" smooth="no"/>
      <point x="101" y="1300" type="line" smooth="no"/>
      <point x="587" y="1300" type="line" smooth="no"/>
      <point x="628" y="1153" type="line" smooth="no"/>
      <point x="673" y="1260"/>
      <point x="802" y="1323"/>
      <point x="957" y="1327" type="curve" smooth="no"/>
      <point x="957" y="949" type="line" smooth="no"/>
      <point x="671" y="893" type="line" smooth="no"/>
      <point x="671" y="0" type="line" smooth="no"/>
    </contour>
  </outline>
</glyph>
<glyph name="s" format="1">
  <advance width="1414"/>
  <unicode hex="0073"/>
  <outline>
    <contour>
      <point x="792" y="446" type="line" smooth="no"/>
      <point x="793" y="446" type="line" smooth="no"/>
      <point x="788" y="452"/>
      <point x="773" y="457"/>
      <point x="749" y="460" type="curve" smooth="yes"/>
      <point x="638" y="475"/>
      <point x="511" y="488"/>
      <point x="407" y="517" type="curve" smooth="yes"/>
      <point x="220" y="569"/>
      <point x="55" y="685"/>
      <point x="55" y="900" type="curve" smooth="yes"/>
      <point x="55" y="1266"/>
      <point x="352" y="1327"/>
      <point x="724" y="1327" type="curve" smooth="yes"/>
      <point x="997" y="1327"/>
      <point x="1332" y="1309"/>
      <point x="1332" y="956" type="curve" smooth="yes"/>
      <point x="1332" y="901"/>
      <point x="1332" y="887"/>
      <point x="1331" y="872" type="curve" smooth="no"/>
      <point x="792" y="902" type="line" smooth="no"/>
      <point x="792" y="1063" type="line" smooth="no"/>
      <point x="625" y="1063" type="line" smooth="no"/>
      <point x="625" y="861" type="line" smooth="no"/>
      <point x="631" y="855"/>
      <point x="646" y="850"/>
      <point x="670" y="846" type="curve" smooth="yes"/>
      <point x="781" y="828"/>
      <point x="907" y="815"/>
      <point x="1012" y="786" type="curve" smooth="yes"/>
      <point x="1192" y="736"/>
      <point x="1363" y="629"/>
      <point x="1363" y="420" type="curve" smooth="yes"/>
      <point x="1363" y="6"/>
      <point x="1032" y="-30"/>
      <point x="695" y="-30" type="curve" smooth="yes"/>
      <point x="343" y="-30"/>
      <point x="85" y="8"/>
      <point x="85" y="397" type="curve" smooth="yes"/>
      <point x="85" y="408"/>
      <point x="85" y="420"/>
      <point x="86" y="432" type="curve" smooth="no"/>
      <point x="625" y="400" type="line" smooth="no"/>
      <point x="625" y="233" type="line" smooth="no"/>
      <point x="792" y="233" type="line" smooth="no"/>
    </contour>
  </outline>
</glyph>
<glyph name="t" format="1">
  <advance width="944"/>
  <unicode hex="0074"/>
  <outline>
    <contour>
      <point x="906" y="-7" type="line" smooth="no"/>
      <point x="905" y="-7"/>
      <point x="806" y="-25"/>
      <point x="695" y="-25" type="curve" smooth="yes"/>
      <point x="286" y="-25"/>
      <point x="131" y="37"/>
      <point x="131" y="359" type="curve" smooth="yes"/>
      <point x="131" y="1100" type="line" smooth="no"/>
      <point x="-6" y="1100" type="line" smooth="no"/>
      <point x="-6" y="1300" type="line" smooth="no"/>
      <point x="131" y="1300" type="line" smooth="no"/>
      <point x="131" y="1595" type="line" smooth="no"/>
      <point x="702" y="1595" type="line" smooth="no"/>
      <point x="702" y="1300" type="line" smooth="no"/>
      <point x="861" y="1300" type="line" smooth="no"/>
      <point x="861" y="1100" type="line" smooth="no"/>
      <point x="702" y="1100" type="line" smooth="no"/>
      <point x="702" y="328" type="line" smooth="yes"/>
      <point x="702" y="241"/>
      <point x="797" y="223"/>
      <point x="906" y="223" type="curve" smooth="no"/>
    </contour>
  </outline>
</glyph>
<glyph name="u" format="1">
  <advance width="1490"/>
  <unicode hex="0075"/>
  <outline>
    <contour>
      <point x="508" y="-30" type="curve" smooth="yes"/>
      <point x="239" y="-30"/>
      <point x="84" y="96"/>
      <point x="84" y="360" type="curve" smooth="yes"/>
      <point x="84" y="1300" type="line" smooth="no"/>
      <point x="656" y="1300" type="line" smooth="no"/>
      <point x="656" y="233" type="line" smooth="no"/>
      <point x="822" y="233" type="line" smooth="no"/>
      <point x="822" y="1300" type="line" smooth="no"/>
      <point x="1394" y="1300" type="line" smooth="no"/>
      <point x="1394" y="0" type="line" smooth="no"/>
      <point x="877" y="0" type="line" smooth="no"/>
      <point x="840" y="112" type="line" smooth="no"/>
      <point x="786" y="24"/>
      <point x="646" y="-30"/>
    </contour>
  </outline>
</glyph>
<glyph name="w" format="1">
  <advance width="2025"/>
  <unicode hex="0077"/>
  <outline>
    <contour>
      <point x="923" y="0" type="line" smooth="no"/>
      <point x="233" y="0" type="line" smooth="no"/>
      <point x="35" y="1300" type="line" smooth="no"/>
      <point x="535" y="1300" type="line" smooth="no"/>
      <point x="630" y="385" type="line" smooth="no"/>
      <point x="644" y="385" type="line" smooth="no"/>
      <point x="746" y="1300" type="line" smooth="no"/>
      <point x="1291" y="1300" type="line" smooth="no"/>
      <point x="1388" y="385" type="line" smooth="no"/>
      <point x="1402" y="385" type="line" smooth="no"/>
      <point x="1495" y="1300" type="line" smooth="no"/>
      <point x="1990" y="1300" type="line" smooth="no"/>
      <point x="1796" y="0" type="line" smooth="no"/>
      <point x="1102" y="0" type="line" smooth="no"/>
      <point x="1016" y="801" type="line" smooth="no"/>
      <point x="1006" y="801" type="line" smooth="no"/>
    </contour>
  </outline>
</glyph>
<glyph name="x" format="1">
  <advance width="1362"/>
  <unicode hex="0078"/>
  <outline>
    <contour>
      <point x="23" y="0" type="line" smooth="no"/>
      <point x="396" y="652" type="line" smooth="no"/>
      <point x="23" y="1300" type="line" smooth="no"/>
      <point x="595" y="1300" type="line" smooth="no"/>
      <point x="681" y="1049" type="line" smooth="no"/>
      <point x="768" y="1300" type="line" smooth="no"/>
      <point x="1339" y="1300" type="line" smooth="no"/>
      <point x="966" y="652" type="line" smooth="no"/>
      <point x="1339" y="0" type="line" smooth="no"/>
      <point x="772" y="0" type="line" smooth="no"/>
      <point x="681" y="258" type="line" smooth="no"/>
      <point x="590" y="0" type="line" smooth="no"/>
    </contour>
  </outline>
</glyph>
<glyph name="z" format="1">
  <advance width="1080"/>
  <unicode hex="007a"/>
  <outline>
    <contour>
      <point x="77" y="1300" type="line" smooth="no"/>
      <point x="1015" y="1300" type="line" smooth="no"/>
      <point x="1038" y="1079" type="line" smooth="no"/>
      <point x="682" y="246" type="line" smooth="no"/>
      <point x="1053" y="246" type="line" smooth="no"/>
      <point x="1038" y="0" type="line" smooth="no"/>
      <point x="81" y="0" type="line" smooth="no"/>
      <point x="57" y="233" type="line" smooth="no"/>
      <point x="422" y="1051" type="line" smooth="no"/>
      <point x="88" y="1051" type="line" smooth="no"/>
    </contour>
  </outline>
</glyph>
<glyph name="braceleft" format="1">
  <advance width="1132"/>
  <unicode hex="007b"/>
  <outline>
    <contour>
      <point x="1100" y="1925" type="curve" smooth="no"/>
      <point x="1100" y="1646" type="line" smooth="no"/>
      <point x="536" y="1646"/>
      <point x="890" y="1008"/>
      <point x="609" y="796" type="curve" smooth="no"/>
      <point x="890" y="612"/>
      <point x="536" y="-51"/>
      <point x="1101" y="-51" type="curve" smooth="no"/>
      <point x="1101" y="-330" type="line" smooth="no"/>
      <point x="561" y="-330"/>
      <point x="310" y="-166"/>
      <point x="273" y="366" type="curve" smooth="no"/>
      <point x="256" y="495"/>
      <point x="275" y="658"/>
      <point x="85" y="658" type="curve" smooth="no"/>
      <point x="85" y="937" type="line" smooth="no"/>
      <point x="273" y="937"/>
      <point x="256" y="1090"/>
      <point x="274" y="1228" type="curve" smooth="yes"/>
      <point x="344" y="1752"/>
      <point x="561" y="1925"/>
    </contour>
  </outline>
</glyph>
<glyph name="bar" format="1">
  <advance width="831"/>
  <unicode hex="007c"/>
  <outline>
    <contour>
      <point x="700" y="1795" type="line" smooth="no"/>
      <point x="700" y="-100" type="line" smooth="no"/>
      <point x="129" y="-100" type="line" smooth="no"/>
      <point x="129" y="1795" type="line" smooth="no"/>
    </contour>
  </outline>
</glyph>
<glyph name="currency" format="1">
  <advance width="1390"/>
  <unicode hex="00a4"/>
  <outline>
    <contour>
      <point x="637" y="570" type="line" smooth="no"/>
      <point x="749" y="570" type="line" smooth="no"/>
      <point x="749" y="1070" type="line" smooth="no"/>
      <point x="637" y="1070" type="line" smooth="no"/>
    </contour>
    <contour>
      <point x="698" y="299" type="curve" smooth="yes"/>
      <point x="560" y="300"/>
      <point x="449" y="315"/>
      <point x="354" y="349" type="curve" smooth="no"/>
      <point x="206" y="189" type="line" smooth="no"/>
      <point x="126" y="273" type="line" smooth="no"/>
      <point x="244" y="401" type="line" smooth="no"/>
      <point x="117" y="483"/>
      <point x="68" y="602"/>
      <point x="68" y="804" type="curve" smooth="yes"/>
      <point x="68" y="1004"/>
      <point x="101" y="1142"/>
      <point x="219" y="1229" type="curve" smooth="no"/>
      <point x="127" y="1330" type="line" smooth="no"/>
      <point x="207" y="1414" type="line" smooth="no"/>
      <point x="325" y="1286" type="line" smooth="no"/>
      <point x="427" y="1326"/>
      <point x="546" y="1343"/>
      <point x="697" y="1343" type="curve" smooth="yes"/>
      <point x="846" y="1343"/>
      <point x="963" y="1326"/>
      <point x="1065" y="1287" type="curve" smooth="no"/>
      <point x="1181" y="1414" type="line" smooth="no"/>
      <point x="1262" y="1330" type="line" smooth="no"/>
      <point x="1171" y="1231" type="line" smooth="no"/>
      <point x="1293" y="1143"/>
      <point x="1325" y="1016"/>
      <point x="1325" y="804" type="curve" smooth="yes"/>
      <point x="1325" y="605"/>
      <point x="1271" y="479"/>
      <point x="1145" y="398" type="curve" smooth="no"/>
      <point x="1263" y="272" type="line" smooth="no"/>
      <point x="1182" y="188" type="line" smooth="no"/>
      <point x="1036" y="346" type="line" smooth="no"/>
      <point x="939" y="314"/>
      <point x="833" y="299"/>
    </contour>
  </outline>
</glyph>
<glyph name="dieresis" format="1">
  <advance width="1296"/>
  <unicode hex="00a8"/>
  <outline>
    <contour>
      <point x="1217" y="418" type="line" smooth="no"/>
      <point x="1217" y="82" type="line" smooth="no"/>
      <point x="766" y="82" type="line" smooth="no"/>
      <point x="766" y="418" type="line" smooth="no"/>
    </contour>
    <contour>
      <point x="533" y="418" type="line" smooth="no"/>
      <point x="533" y="82" type="line" smooth="no"/>
      <point x="83" y="82" type="line" smooth="no"/>
      <point x="83" y="418" type="line" smooth="no"/>
    </contour>
  </outline>
</glyph>
<glyph name="ordfeminine" format="1">
  <advance width="1471"/>
  <unicode hex="00aa"/>
  <outline>
    <contour>
      <point x="644" y="942" type="line" smooth="no"/>
      <point x="644" y="489" type="line" smooth="no"/>
      <point x="810" y="489" type="line" smooth="no"/>
      <point x="810" y="942" type="line" smooth="no"/>
    </contour>
    <contour>
      <point x="135" y="1294" type="curve" smooth="yes"/>
      <point x="135" y="1580"/>
      <point x="446" y="1616"/>
      <point x="739" y="1616" type="curve" smooth="yes"/>
      <point x="921" y="1616"/>
      <point x="1068" y="1601"/>
      <point x="1186" y="1553" type="curve" smooth="yes"/>
      <point x="1319" y="1499"/>
      <point x="1380" y="1420"/>
      <point x="1380" y="1241" type="curve" smooth="yes"/>
      <point x="1380" y="546" type="line" smooth="no"/>
      <point x="1381" y="547" type="line" smooth="no"/>
      <point x="1381" y="451"/>
      <point x="1393" y="364"/>
      <point x="1409" y="290" type="curve" smooth="no"/>
      <point x="889" y="290" type="line" smooth="no"/>
      <point x="833" y="428" type="line" smooth="no"/>
      <point x="772" y="327"/>
      <point x="657" y="263"/>
      <point x="493" y="263" type="curve" smooth="yes"/>
      <point x="208" y="263"/>
      <point x="72" y="396"/>
      <point x="72" y="677" type="curve" smooth="yes"/>
      <point x="72" y="982"/>
      <point x="234" y="1113"/>
      <point x="544" y="1113" type="curve" smooth="yes"/>
      <point x="651" y="1113"/>
      <point x="737" y="1096"/>
      <point x="810" y="1072" type="curve" smooth="no"/>
      <point x="810" y="1395" type="line" smooth="no"/>
      <point x="671" y="1395" type="line" smooth="no"/>
      <point x="671" y="1204" type="line" smooth="no"/>
      <point x="146" y="1184" type="line" smooth="no"/>
      <point x="140" y="1219"/>
      <point x="135" y="1255"/>
    </contour>
  </outline>
</glyph>
<glyph name="macron" format="1">
  <advance width="999"/>
  <unicode hex="00af"/>
  <outline>
    <contour>
      <point x="920" y="897" type="line" smooth="no"/>
      <point x="920" y="666" type="line" smooth="no"/>
      <point x="87" y="666" type="line" smooth="no"/>
      <point x="87" y="897" type="line" smooth="no"/>
    </contour>
  </outline>
</glyph>
<glyph name="plusminus" format="1">
  <advance width="1304"/>
  <unicode hex="00b1"/>
  <outline>
    <contour>
      <point x="1064" y="300" type="line" smooth="no"/>
      <point x="1064" y="-1" type="line" smooth="no"/>
      <point x="230" y="-1" type="line" smooth="no"/>
      <point x="230" y="300" type="line" smooth="no"/>
    </contour>
    <contour>
      <point x="457" y="1214" type="line" smooth="no"/>
      <point x="457" y="1595" type="line" smooth="no"/>
      <point x="849" y="1595" type="line" smooth="no"/>
      <point x="849" y="1214" type="line" smooth="no"/>
      <point x="1213" y="1214" type="line" smooth="no"/>
      <point x="1213" y="881" type="line" smooth="no"/>
      <point x="849" y="881" type="line" smooth="no"/>
      <point x="849" y="503" type="line" smooth="no"/>
      <point x="457" y="503" type="line" smooth="no"/>
      <point x="457" y="881" type="line" smooth="no"/>
      <point x="92" y="881" type="line" smooth="no"/>
      <point x="92" y="1214" type="line" smooth="no"/>
    </contour>
  </outline>
</glyph>
<glyph name="uni00B3" format="1">
  <advance width="1101"/>
  <unicode hex="00b3"/>
  <outline>
    <contour>
      <point x="1036" y="881" type="curve" smooth="yes"/>
      <point x="1036" y="773"/>
      <point x="981" y="705"/>
      <point x="898" y="669" type="curve" smooth="no"/>
      <point x="992" y="633"/>
      <point x="1038" y="547"/>
      <point x="1038" y="439" type="curve" smooth="yes"/>
      <point x="1038" y="193"/>
      <point x="903" y="100"/>
      <point x="607" y="100" type="curve" smooth="yes"/>
      <point x="311" y="100"/>
      <point x="180" y="221"/>
      <point x="180" y="471" type="curve" smooth="yes"/>
      <point x="180" y="491"/>
      <point x="181" y="511"/>
      <point x="183" y="532" type="curve" smooth="no"/>
      <point x="549" y="532" type="line" smooth="no"/>
      <point x="549" y="282" type="line" smooth="no"/>
      <point x="662" y="282" type="line" smooth="no"/>
      <point x="662" y="595" type="line" smooth="no"/>
      <point x="491" y="595" type="line" smooth="no"/>
      <point x="491" y="743" type="line" smooth="no"/>
      <point x="662" y="743" type="line" smooth="no"/>
      <point x="662" y="1027" type="line" smooth="no"/>
      <point x="549" y="1027" type="line" smooth="no"/>
      <point x="549" y="804" type="line" smooth="no"/>
      <point x="183" y="804" type="line" smooth="no"/>
      <point x="181" y="823"/>
      <point x="180" y="841"/>
      <point x="180" y="859" type="curve" smooth="yes"/>
      <point x="180" y="1122"/>
      <point x="326" y="1205"/>
      <point x="606" y="1205" type="curve" smooth="yes"/>
      <point x="876" y="1205"/>
      <point x="1036" y="1128"/>
    </contour>
  </outline>
</glyph>
<glyph name="periodcentered" format="1">
  <advance width="670"/>
  <unicode hex="00b7"/>
  <outline>
    <contour>
      <point x="136" y="1116" type="curve" smooth="yes"/>
      <point x="136" y="1256"/>
      <point x="238" y="1326"/>
      <point x="340" y="1326" type="curve" smooth="yes"/>
      <point x="442" y="1326"/>
      <point x="544" y="1256"/>
      <point x="544" y="1116" type="curve" smooth="yes"/>
      <point x="544" y="976"/>
      <point x="442" y="906"/>
      <point x="340" y="906" type="curve" smooth="yes"/>
      <point x="238" y="906"/>
      <point x="136" y="976"/>
    </contour>
  </outline>
</glyph>
<glyph name="cedilla" format="1">
  <advance width="948"/>
  <unicode hex="00b8"/>
  <outline>
    <contour>
      <point x="384" y="0" type="line" smooth="no"/>
      <point x="561" y="0" type="line" smooth="no"/>
      <point x="561" y="-70" type="line" smooth="no"/>
      <point x="701" y="-70"/>
      <point x="791" y="-101"/>
      <point x="791" y="-228" type="curve" smooth="yes"/>
      <point x="791" y="-323" type="line" smooth="yes"/>
      <point x="791" y="-460"/>
      <point x="678" y="-481"/>
      <point x="538" y="-481" type="curve" smooth="yes"/>
      <point x="389" y="-481"/>
      <point x="284" y="-457"/>
      <point x="284" y="-323" type="curve" smooth="yes"/>
      <point x="284" y="-267" type="line" smooth="no"/>
      <point x="511" y="-239" type="line" smooth="no"/>
      <point x="511" y="-371" type="line" smooth="no"/>
      <point x="574" y="-371" type="line" smooth="no"/>
      <point x="574" y="-180" type="line" smooth="no"/>
      <point x="384" y="-180" type="line" smooth="no"/>
    </contour>
  </outline>
</glyph>
<glyph name="questiondown" format="1">
  <advance width="906"/>
  <unicode hex="00bf"/>
  <outline>
    <contour>
      <point x="757" y="1427" type="curve" smooth="yes"/>
      <point x="757" y="1287"/>
      <point x="655" y="1217"/>
      <point x="553" y="1217" type="curve" smooth="yes"/>
      <point x="451" y="1217"/>
      <point x="349" y="1287"/>
      <point x="349" y="1427" type="curve" smooth="yes"/>
      <point x="349" y="1567"/>
      <point x="451" y="1637"/>
      <point x="553" y="1637" type="curve" smooth="yes"/>
      <point x="655" y="1637"/>
      <point x="757" y="1567"/>
    </contour>
    <contour>
      <point x="493" y="1031" type="curve" smooth="yes"/>
      <point x="498" y="1074"/>
      <point x="528" y="1088"/>
      <point x="555" y="1088" type="curve" smooth="yes"/>
      <point x="596" y="1088"/>
      <point x="616" y="1062"/>
      <point x="616" y="1016" type="curve" smooth="yes"/>
      <point x="616" y="784"/>
      <point x="498" y="619"/>
      <point x="471" y="475" type="curve" smooth="yes"/>
      <point x="470" y="466"/>
      <point x="469" y="457"/>
      <point x="469" y="448" type="curve" smooth="yes"/>
      <point x="469" y="386"/>
      <point x="508" y="334"/>
      <point x="611" y="334" type="curve" smooth="yes"/>
      <point x="659" y="334"/>
      <point x="722" y="348"/>
      <point x="805" y="383" type="curve" smooth="no"/>
      <point x="841" y="36" type="line" smooth="no"/>
      <point x="688" y="-13"/>
      <point x="566" y="-34"/>
      <point x="470" y="-34" type="curve" smooth="yes"/>
      <point x="135" y="-34"/>
      <point x="37" y="125"/>
      <point x="37" y="285" type="curve" smooth="yes"/>
      <point x="37" y="589"/>
      <point x="453" y="686"/>
    </contour>
  </outline>
</glyph>
<glyph name="AE" format="1">
  <advance width="2011"/>
  <unicode hex="00c6"/>
  <outline>
    <contour>
      <point x="847" y="578" type="line" smooth="no"/>
      <point x="987" y="578" type="line" smooth="no"/>
      <point x="987" y="1001" type="line" smooth="no"/>
    </contour>
    <contour>
      <point x="1946" y="1595" type="line" smooth="no"/>
      <point x="1946" y="1354" type="line" smooth="no"/>
      <point x="1605" y="1354" type="line" smooth="no"/>
      <point x="1605" y="961" type="line" smooth="no"/>
      <point x="1923" y="961" type="line" smooth="no"/>
      <point x="1923" y="711" type="line" smooth="no"/>
      <point x="1605" y="711" type="line" smooth="no"/>
      <point x="1605" y="244" type="line" smooth="no"/>
      <point x="1946" y="244" type="line" smooth="no"/>
      <point x="1946" y="0" type="line" smooth="no"/>
      <point x="987" y="0" type="line" smooth="no"/>
      <point x="987" y="348" type="line" smooth="no"/>
      <point x="774" y="348" type="line" smooth="no"/>
      <point x="663" y="0" type="line" smooth="no"/>
      <point x="38" y="0" type="line" smooth="no"/>
      <point x="673" y="1595" type="line" smooth="no"/>
    </contour>
  </outline>
</glyph>
<glyph name="eth" format="1">
  <advance width="1395"/>
  <unicode hex="00f0"/>
  <outline>
    <contour>
      <point x="762" y="828" type="line" smooth="no"/>
      <point x="640" y="828" type="line" smooth="no"/>
      <point x="640" y="238" type="line" smooth="no"/>
      <point x="762" y="238" type="line" smooth="no"/>
    </contour>
    <contour>
      <point x="991" y="1578" type="line" smooth="no"/>
      <point x="1174" y="1402"/>
      <point x="1337" y="1163"/>
      <point x="1337" y="807" type="curve" smooth="yes"/>
      <point x="1337" y="471"/>
      <point x="1326" y="171"/>
      <point x="1119" y="45" type="curve" smooth="yes"/>
      <point x="1017" y="-17"/>
      <point x="880" y="-37"/>
      <point x="708" y="-37" type="curve" smooth="yes"/>
      <point x="414" y="-37"/>
      <point x="191" y="12"/>
      <point x="112" y="221" type="curve" smooth="yes"/>
      <point x="80" y="306"/>
      <point x="72" y="408"/>
      <point x="72" y="525" type="curve" smooth="yes"/>
      <point x="72" y="761"/>
      <point x="109" y="933"/>
      <point x="258" y="1021" type="curve" smooth="yes"/>
      <point x="349" y="1075"/>
      <point x="470" y="1097"/>
      <point x="623" y="1097" type="curve" smooth="yes"/>
      <point x="763" y="1097" type="line" smooth="no"/>
      <point x="763" y="1199"/>
      <point x="681" y="1273"/>
      <point x="624" y="1324" type="curve" smooth="no"/>
      <point x="372" y="1151" type="line" smooth="no"/>
      <point x="302" y="1275" type="line" smooth="no"/>
      <point x="507" y="1416" type="line" smooth="no"/>
      <point x="456" y="1449"/>
      <point x="403" y="1483"/>
      <point x="353" y="1510" type="curve" smooth="yes"/>
      <point x="286" y="1546" type="line" smooth="no"/>
      <point x="510" y="1887" type="line" smooth="no"/>
      <point x="511" y="1889" type="line" smooth="no"/>
      <point x="648" y="1832"/>
      <point x="767" y="1762"/>
      <point x="880" y="1674" type="curve" smooth="no"/>
      <point x="1088" y="1817" type="line" smooth="no"/>
      <point x="1159" y="1694" type="line" smooth="no"/>
    </contour>
  </outline>
</glyph>
<glyph name="oslash" format="1">
  <advance width="1465"/>
  <unicode hex="00f8"/>
  <outline>
    <contour>
      <point x="657" y="636" type="line" smooth="no"/>
      <point x="823" y="806" type="line" smooth="no"/>
      <point x="823" y="1106" type="line" smooth="no"/>
      <point x="657" y="1106" type="line" smooth="no"/>
    </contour>
    <contour>
      <point x="657" y="234" type="line" smooth="no"/>
      <point x="823" y="234" type="line" smooth="no"/>
      <point x="823" y="689" type="line" smooth="no"/>
      <point x="657" y="519" type="line" smooth="no"/>
    </contour>
    <contour>
      <point x="86" y="952" type="line" smooth="yes"/>
      <point x="86" y="1298"/>
      <point x="390" y="1343"/>
      <point x="745" y="1343" type="curve" smooth="no"/>
      <point x="744" y="1344" type="line" smooth="no"/>
      <point x="957" y="1344"/>
      <point x="1128" y="1324"/>
      <point x="1255" y="1249" type="curve" smooth="no"/>
      <point x="1348" y="1344" type="line" smooth="no"/>
      <point x="1406" y="1286" type="line" smooth="no"/>
      <point x="1320" y="1198" type="line" smooth="no"/>
      <point x="1376" y="1141"/>
      <point x="1395" y="1063"/>
      <point x="1395" y="952" type="curve" smooth="yes"/>
      <point x="1395" y="352" type="line" smooth="yes"/>
      <point x="1395" y="172"/>
      <point x="1330" y="82"/>
      <point x="1197" y="27" type="curve" smooth="yes"/>
      <point x="1078" y="-22"/>
      <point x="928" y="-39"/>
      <point x="744" y="-39" type="curve" smooth="yes"/>
      <point x="522" y="-39"/>
      <point x="343" y="-18"/>
      <point x="215" y="65" type="curve" smooth="no"/>
      <point x="114" y="-39" type="line" smooth="no"/>
      <point x="56" y="19" type="line" smooth="no"/>
      <point x="153" y="118" type="line" smooth="no"/>
      <point x="103" y="175"/>
      <point x="86" y="249"/>
      <point x="86" y="352" type="curve" smooth="yes"/>
    </contour>
  </outline>
</glyph>
<glyph name="Hbar" format="1">
  <advance width="1703"/>
  <unicode hex="0126"/>
  <outline>
    <contour>
      <point x="755" y="1158" type="line" smooth="no"/>
      <point x="755" y="938" type="line" smooth="no"/>
      <point x="948" y="938" type="line" smooth="no"/>
      <point x="948" y="1158" type="line" smooth="no"/>
    </contour>
    <contour>
      <point x="1659" y="1349" type="line" smooth="no"/>
      <point x="1659" y="1158" type="line" smooth="no"/>
      <point x="1553" y="1158" type="line" smooth="no"/>
      <point x="1553" y="0" type="line" smooth="no"/>
      <point x="948" y="0" type="line" smooth="no"/>
      <point x="948" y="688" type="line" smooth="no"/>
      <point x="755" y="688" type="line" smooth="no"/>
      <point x="755" y="0" type="line" smooth="no"/>
      <point x="151" y="0" type="line" smooth="no"/>
      <point x="151" y="1158" type="line" smooth="no"/>
      <point x="54" y="1158" type="line" smooth="no"/>
      <point x="54" y="1349" type="line" smooth="no"/>
      <point x="151" y="1349" type="line" smooth="no"/>
      <point x="151" y="1595" type="line" smooth="no"/>
      <point x="755" y="1595" type="line" smooth="no"/>
      <point x="755" y="1349" type="line" smooth="no"/>
      <point x="948" y="1349" type="line" smooth="no"/>
      <point x="948" y="1595" type="line" smooth="no"/>
      <point x="1553" y="1595" type="line" smooth="no"/>
      <point x="1553" y="1349" type="line" smooth="no"/>
    </contour>
  </outline>
</glyph>
<glyph name="hbar" format="1">
  <advance width="1511"/>
  <unicode hex="0127"/>
  <outline>
    <contour>
      <point x="1023" y="1343" type="curve" smooth="yes"/>
      <point x="1298" y="1343"/>
      <point x="1439" y="1213"/>
      <point x="1439" y="945" type="curve" smooth="yes"/>
      <point x="1439" y="0" type="line" smooth="no"/>
      <point x="868" y="0" type="line" smooth="no"/>
      <point x="868" y="1065" type="line" smooth="no"/>
      <point x="702" y="1065" type="line" smooth="no"/>
      <point x="702" y="0" type="line" smooth="no"/>
      <point x="130" y="0" type="line" smooth="no"/>
      <point x="130" y="1450" type="line" smooth="no"/>
      <point x="1" y="1450" type="line" smooth="no"/>
      <point x="1" y="1619" type="line" smooth="no"/>
      <point x="130" y="1619" type="line" smooth="no"/>
      <point x="130" y="1710" type="line" smooth="no"/>
      <point x="702" y="1710" type="line" smooth="no"/>
      <point x="702" y="1619" type="line" smooth="no"/>
      <point x="1146" y="1619" type="line" smooth="no"/>
      <point x="1146" y="1450" type="line" smooth="no"/>
      <point x="702" y="1450" type="line" smooth="no"/>
      <point x="702" y="1210" type="line" smooth="no"/>
      <point x="756" y="1297"/>
      <point x="884" y="1343"/>
    </contour>
  </outline>
</glyph>
<glyph name="ij" format="1">
  <advance width="1646"/>
  <unicode hex="0133"/>
  <outline>
    <contour>
      <point x="1561" y="1709" type="line" smooth="no"/>
      <point x="1561" y="1425" type="line" smooth="no"/>
      <point x="989" y="1425" type="line" smooth="no"/>
      <point x="989" y="1709" type="line" smooth="no"/>
    </contour>
    <contour>
      <point x="1561" y="94" type="line" smooth="yes"/>
      <point x="1561" y="-199"/>
      <point x="1397" y="-326"/>
      <point x="1100" y="-326" type="curve" smooth="yes"/>
      <point x="991" y="-326"/>
      <point x="911" y="-321"/>
      <point x="830" y="-305" type="curve" smooth="no"/>
      <point x="800" y="-66" type="line" smooth="no"/>
      <point x="989" y="-66" type="line" smooth="no"/>
      <point x="989" y="1300" type="line" smooth="no"/>
      <point x="1561" y="1300" type="line" smooth="no"/>
    </contour>
    <contour>
      <point x="678" y="1709" type="line" smooth="no"/>
      <point x="678" y="1425" type="line" smooth="no"/>
      <point x="107" y="1425" type="line" smooth="no"/>
      <point x="107" y="1709" type="line" smooth="no"/>
    </contour>
    <contour>
      <point x="678" y="0" type="line" smooth="no"/>
      <point x="107" y="0" type="line" smooth="no"/>
      <point x="107" y="1300" type="line" smooth="no"/>
      <point x="678" y="1300" type="line" smooth="no"/>
    </contour>
  </outline>
</glyph>
<glyph name="kgreenlandic" format="1">
  <advance width="1590"/>
  <unicode hex="0138"/>
  <outline>
    <contour>
      <point x="100" y="0" type="line" smooth="no"/>
      <point x="100" y="1299" type="line" smooth="no"/>
      <point x="684" y="1299" type="line" smooth="no"/>
      <point x="684" y="858" type="line" smooth="no"/>
      <point x="952" y="1300" type="line" smooth="no"/>
      <point x="1538" y="1300" type="line" smooth="no"/>
      <point x="1203" y="790" type="line" smooth="no"/>
      <point x="1561" y="0" type="line" smooth="no"/>
      <point x="986" y="0" type="line" smooth="no"/>
      <point x="797" y="455" type="line" smooth="no"/>
      <point x="684" y="318" type="line" smooth="no"/>
      <point x="684" y="0" type="line" smooth="no"/>
    </contour>
  </outline>
</glyph>
<glyph name="Lslash" format="1">
  <advance width="1534"/>
  <unicode hex="0141"/>
  <outline>
    <contour>
      <point x="377" y="911" type="line" smooth="no"/>
      <point x="377" y="1595" type="line" smooth="no"/>
      <point x="981" y="1595" type="line" smooth="no"/>
      <point x="981" y="1231" type="line" smooth="no"/>
      <point x="1320" y="1410" type="line" smooth="no"/>
      <point x="1320" y="1072" type="line" smooth="no"/>
      <point x="981" y="892" type="line" smooth="no"/>
      <point x="981" y="241" type="line" smooth="no"/>
      <point x="1322" y="241" type="line" smooth="no"/>
      <point x="1322" y="0" type="line" smooth="no"/>
      <point x="377" y="0" type="line" smooth="no"/>
      <point x="377" y="572" type="line" smooth="no"/>
      <point x="72" y="410" type="line" smooth="no"/>
      <point x="72" y="750" type="line" smooth="no"/>
    </contour>
  </outline>
</glyph>
<glyph name="OE" format="1">
  <advance width="1832"/>
  <unicode hex="0152"/>
  <outline>
    <contour>
      <point x="678" y="232" type="line" smooth="no"/>
      <point x="792" y="232" type="line" smooth="no"/>
      <point x="792" y="1363" type="line" smooth="no"/>
      <point x="678" y="1363" type="line" smooth="no"/>
    </contour>
    <contour>
      <point x="722" y="0" type="line" smooth="no"/>
      <point x="722" y="-1" type="line" smooth="no"/>
      <point x="541" y="-1"/>
      <point x="396" y="13"/>
      <point x="279" y="60" type="curve" smooth="yes"/>
      <point x="145" y="114"/>
      <point x="92" y="191"/>
      <point x="92" y="371" type="curve" smooth="yes"/>
      <point x="92" y="1227" type="line" smooth="yes"/>
      <point x="92" y="1401"/>
      <point x="149" y="1483"/>
      <point x="279" y="1534" type="curve" smooth="yes"/>
      <point x="396" y="1580"/>
      <point x="543" y="1595"/>
      <point x="722" y="1595" type="curve" smooth="yes"/>
      <point x="1768" y="1595" type="line" smooth="no"/>
      <point x="1768" y="1354" type="line" smooth="no"/>
      <point x="1424" y="1354" type="line" smooth="no"/>
      <point x="1424" y="961" type="line" smooth="no"/>
      <point x="1744" y="961" type="line" smooth="no"/>
      <point x="1744" y="711" type="line" smooth="no"/>
      <point x="1424" y="711" type="line" smooth="no"/>
      <point x="1424" y="244" type="line" smooth="no"/>
      <point x="1768" y="244" type="line" smooth="no"/>
      <point x="1768" y="0" type="line" smooth="no"/>
    </contour>
  </outline>
</glyph>
<glyph name="ogonek" format="1">
  <advance width="693"/>
  <unicode hex="02db"/>
  <outline>
    <contour>
      <point x="566" y="0" type="curve" smooth="no"/>
      <point x="637" y="-72" type="line" smooth="no"/>
      <point x="568" y="-119"/>
      <point x="527" y="-196"/>
      <point x="527" y="-261" type="curve" smooth="yes"/>
      <point x="527" y="-324"/>
      <point x="565" y="-375"/>
      <point x="652" y="-375" type="curve" smooth="yes"/>
      <point x="688" y="-375"/>
      <point x="733" y="-366"/>
      <point x="787" y="-346" type="curve" smooth="no"/>
      <point x="787" y="-661" type="line" smooth="no"/>
      <point x="713" y="-689"/>
      <point x="646" y="-702"/>
      <point x="586" y="-702" type="curve" smooth="yes"/>
      <point x="379" y="-702"/>
      <point x="256" y="-554"/>
      <point x="256" y="-388" type="curve" smooth="yes"/>
      <point x="256" y="-243"/>
      <point x="350" y="-84"/>
    </contour>
  </outline>
</glyph>
<glyph name="tilde" format="1">
  <advance width="1422"/>
  <unicode hex="02dc"/>
  <outline>
    <contour>
      <point x="1359" y="96" type="curve" smooth="no"/>
      <point x="1066" y="96" type="line" smooth="no"/>
      <point x="1066" y="178"/>
      <point x="1038" y="260"/>
      <point x="956" y="260" type="curve" smooth="yes"/>
      <point x="912" y="260"/>
      <point x="881" y="233"/>
      <point x="853" y="211" type="curve" smooth="yes"/>
      <point x="759" y="136"/>
      <point x="661" y="70"/>
      <point x="486" y="70" type="curve" smooth="yes"/>
      <point x="250" y="70"/>
      <point x="151" y="176"/>
      <point x="106" y="376" type="curve" smooth="no"/>
      <point x="88" y="439"/>
      <point x="79" y="521"/>
      <point x="79" y="621" type="curve" smooth="no"/>
      <point x="375" y="621" type="line" smooth="no"/>
      <point x="375" y="535"/>
      <point x="401" y="453"/>
      <point x="487" y="453" type="curve" smooth="yes"/>
      <point x="531" y="453"/>
      <point x="565" y="481"/>
      <point x="595" y="503" type="curve" smooth="yes"/>
      <point x="691" y="573"/>
      <point x="784" y="646"/>
      <point x="953" y="646" type="curve" smooth="yes"/>
      <point x="1313" y="646"/>
      <point x="1359" y="444"/>
    </contour>
  </outline>
</glyph>
<glyph name="uni0307" format="1">
  <advance width="670"/>
  <unicode hex="0307"/>
  <outline>
    <contour>
      <point x="136" y="1426" type="curve" smooth="yes"/>
      <point x="136" y="1566"/>
      <point x="238" y="1636"/>
      <point x="340" y="1636" type="curve" smooth="yes"/>
      <point x="442" y="1636"/>
      <point x="544" y="1566"/>
      <point x="544" y="1426" type="curve" smooth="yes"/>
      <point x="544" y="1286"/>
      <point x="442" y="1216"/>
      <point x="340" y="1216" type="curve" smooth="yes"/>
      <point x="238" y="1216"/>
      <point x="136" y="1286"/>
    </contour>
  </outline>
</glyph>
<glyph name="uni030F" format="1">
  <advance width="873"/>
  <unicode hex="030f"/>
  <outline>
    <contour>
      <point x="1519" y="1480" type="curve" smooth="yes"/>
      <point x="1543" y="1459"/>
      <point x="1553" y="1438"/>
      <point x="1553" y="1420" type="curve" smooth="yes"/>
      <point x="1553" y="1391"/>
      <point x="1525" y="1371"/>
      <point x="1490" y="1371" type="curve" smooth="yes"/>
      <point x="1480" y="1371"/>
      <point x="1469" y="1372"/>
      <point x="1458" y="1376" type="curve" smooth="yes"/>
      <point x="1253" y="1438"/>
      <point x="966" y="1510"/>
      <point x="862" y="1570" type="curve" smooth="yes"/>
      <point x="781" y="1617"/>
      <point x="746" y="1687"/>
      <point x="746" y="1752" type="curve" smooth="yes"/>
      <point x="746" y="1846"/>
      <point x="817" y="1930"/>
      <point x="920" y="1930" type="curve" smooth="yes"/>
      <point x="958" y="1930"/>
      <point x="1000" y="1919"/>
      <point x="1045" y="1893" type="curve" smooth="yes"/>
      <point x="1146" y="1835"/>
      <point x="1356" y="1629"/>
    </contour>
    <contour>
      <point x="828" y="1480" type="curve" smooth="yes"/>
      <point x="852" y="1459"/>
      <point x="862" y="1438"/>
      <point x="862" y="1420" type="curve" smooth="yes"/>
      <point x="862" y="1391"/>
      <point x="834" y="1371"/>
      <point x="799" y="1371" type="curve" smooth="yes"/>
      <point x="789" y="1371"/>
      <point x="778" y="1372"/>
      <point x="767" y="1376" type="curve" smooth="yes"/>
      <point x="562" y="1438"/>
      <point x="275" y="1510"/>
      <point x="171" y="1570" type="curve" smooth="yes"/>
      <point x="90" y="1617"/>
      <point x="55" y="1687"/>
      <point x="55" y="1752" type="curve" smooth="yes"/>
      <point x="55" y="1846"/>
      <point x="126" y="1930"/>
      <point x="229" y="1930" type="curve" smooth="yes"/>
      <point x="267" y="1930"/>
      <point x="309" y="1919"/>
      <point x="354" y="1893" type="curve" smooth="yes"/>
      <point x="455" y="1835"/>
      <point x="665" y="1629"/>
    </contour>
  </outline>
</glyph>
<glyph name="uni0311" format="1">
  <advance width="1062"/>
  <unicode hex="0311"/>
  <outline>
    <contour>
      <point x="537" y="1879" type="curve" smooth="yes"/>
      <point x="919" y="1879"/>
      <point x="999" y="1681"/>
      <point x="999" y="1398" type="curve" smooth="no"/>
      <point x="702" y="1398" type="line" smooth="no"/>
      <point x="702" y="1505"/>
      <point x="694" y="1576"/>
      <point x="537" y="1576" type="curve" smooth="yes"/>
      <point x="380" y="1576"/>
      <point x="372" y="1505"/>
      <point x="372" y="1398" type="curve" smooth="no"/>
      <point x="75" y="1398" type="line" smooth="no"/>
      <point x="75" y="1681"/>
      <point x="155" y="1879"/>
    </contour>
  </outline>
</glyph>
<glyph name="emdash" format="1">
  <advance width="1857"/>
  <unicode hex="2014"/>
  <outline>
    <contour>
      <point x="1772" y="897" type="line" smooth="no"/>
      <point x="1772" y="461" type="line" smooth="no"/>
      <point x="87" y="461" type="line" smooth="no"/>
      <point x="87" y="897" type="line" smooth="no"/>
    </contour>
  </outline>
</glyph>
<glyph name="quoteright" format="1">
  <advance width="706"/>
  <unicode hex="2019"/>
  <outline>
    <contour>
      <point x="154" y="1430" type="curve" smooth="yes"/>
      <point x="154" y="1563"/>
      <point x="256" y="1630"/>
      <point x="358" y="1630" type="curve" smooth="yes"/>
      <point x="502" y="1630"/>
      <point x="568" y="1519"/>
      <point x="568" y="1390" type="curve" smooth="yes"/>
      <point x="568" y="1206"/>
      <point x="442" y="987"/>
      <point x="221" y="987" type="curve" smooth="yes"/>
      <point x="207" y="987"/>
      <point x="192" y="988"/>
      <point x="177" y="990" type="curve" smooth="no"/>
      <point x="177" y="1099" type="line" smooth="no"/>
      <point x="257" y="1100"/>
      <point x="327" y="1144"/>
      <point x="333" y="1221" type="curve" smooth="no"/>
      <point x="240" y="1231"/>
      <point x="154" y="1301"/>
    </contour>
  </outline>
</glyph>
<glyph name="quotedblleft" format="1">
  <advance width="1339"/>
  <unicode hex="201c"/>
  <outline>
    <contour>
      <point x="668" y="1187" type="curve" smooth="yes"/>
      <point x="668" y="1054"/>
      <point x="566" y="987"/>
      <point x="464" y="987" type="curve" smooth="yes"/>
      <point x="320" y="987"/>
      <point x="254" y="1098"/>
      <point x="254" y="1227" type="curve" smooth="yes"/>
      <point x="254" y="1411"/>
      <point x="380" y="1630"/>
      <point x="601" y="1630" type="curve" smooth="yes"/>
      <point x="615" y="1630"/>
      <point x="630" y="1629"/>
      <point x="645" y="1627" type="curve" smooth="no"/>
      <point x="645" y="1518" type="line" smooth="no"/>
      <point x="565" y="1517"/>
      <point x="495" y="1473"/>
      <point x="489" y="1396" type="curve" smooth="no"/>
      <point x="582" y="1386"/>
      <point x="668" y="1316"/>
    </contour>
    <contour>
      <point x="1171" y="1187" type="curve" smooth="yes"/>
      <point x="1171" y="1054"/>
      <point x="1069" y="987"/>
      <point x="967" y="987" type="curve" smooth="yes"/>
      <point x="823" y="987"/>
      <point x="757" y="1098"/>
      <point x="757" y="1227" type="curve" smooth="yes"/>
      <point x="757" y="1411"/>
      <point x="883" y="1630"/>
      <point x="1104" y="1630" type="curve" smooth="yes"/>
      <point x="1118" y="1630"/>
      <point x="1133" y="1629"/>
      <point x="1148" y="1627" type="curve" smooth="no"/>
      <point x="1148" y="1518" type="line" smooth="no"/>
      <point x="1068" y="1517"/>
      <point x="998" y="1473"/>
      <point x="992" y="1396" type="curve" smooth="no"/>
      <point x="1085" y="1386"/>
      <point x="1171" y="1316"/>
    </contour>
  </outline>
</glyph>
<glyph name="dagger" format="1">
  <advance width="1061"/>
  <unicode hex="2020"/>
  <outline>
    <contour>
      <point x="713" y="1458" type="curve" smooth="yes"/>
      <point x="713" y="1357"/>
      <point x="646" y="1225"/>
      <point x="584" y="1103" type="curve" smooth="no"/>
      <point x="690" y="1143"/>
      <point x="815" y="1199"/>
      <point x="908" y="1199" type="curve" smooth="yes"/>
      <point x="986" y="1199"/>
      <point x="1025" y="1128"/>
      <point x="1025" y="1058" type="curve" smooth="yes"/>
      <point x="1025" y="986"/>
      <point x="986" y="915"/>
      <point x="907" y="915" type="curve" smooth="yes"/>
      <point x="817" y="915"/>
      <point x="695" y="968"/>
      <point x="592" y="1007" type="curve" smooth="no"/>
      <point x="659" y="649"/>
      <point x="712" y="368"/>
      <point x="712" y="222" type="curve" smooth="yes"/>
      <point x="712" y="79"/>
      <point x="617" y="5"/>
      <point x="523" y="5" type="curve" smooth="yes"/>
      <point x="432" y="5"/>
      <point x="341" y="76"/>
      <point x="341" y="220" type="curve" smooth="yes"/>
      <point x="341" y="369"/>
      <point x="394" y="666"/>
      <point x="455" y="1002" type="curve" smooth="no"/>
      <point x="339" y="957"/>
      <point x="233" y="915"/>
      <point x="153" y="915" type="curve" smooth="yes"/>
      <point x="73" y="915"/>
      <point x="34" y="985"/>
      <point x="34" y="1056" type="curve" smooth="yes"/>
      <point x="34" y="1127"/>
      <point x="74" y="1199"/>
      <point x="152" y="1199" type="curve" smooth="yes"/>
      <point x="234" y="1199"/>
      <point x="342" y="1156"/>
      <point x="460" y="1110" type="curve" smooth="no"/>
      <point x="399" y="1230"/>
      <point x="338" y="1358"/>
      <point x="338" y="1457" type="curve" smooth="yes"/>
      <point x="338" y="1571"/>
      <point x="430" y="1627"/>
      <point x="523" y="1627" type="curve" smooth="yes"/>
      <point x="617" y="1627"/>
      <point x="713" y="1569"/>
    </contour>
  </outline>
</glyph>
<glyph name="daggerdbl" format="1">
  <advance width="1061"/>
  <unicode hex="2021"/>
  <outline>
    <contour>
      <point x="455" y="586" type="curve" smooth="no"/>
      <point x="455" y="1002" type="line" smooth="no"/>
      <point x="339" y="957"/>
      <point x="233" y="915"/>
      <point x="153" y="915" type="curve" smooth="yes"/>
      <point x="73" y="915"/>
      <point x="34" y="985"/>
      <point x="34" y="1056" type="curve" smooth="yes"/>
      <point x="34" y="1127"/>
      <point x="74" y="1199"/>
      <point x="152" y="1199" type="curve" smooth="yes"/>
      <point x="234" y="1199"/>
      <point x="342" y="1156"/>
      <point x="460" y="1110" type="curve" smooth="no"/>
      <point x="399" y="1230"/>
      <point x="338" y="1358"/>
      <point x="338" y="1457" type="curve" smooth="yes"/>
      <point x="338" y="1571"/>
      <point x="430" y="1627"/>
      <point x="523" y="1627" type="curve" smooth="yes"/>
      <point x="617" y="1627"/>
      <point x="713" y="1569"/>
      <point x="713" y="1458" type="curve" smooth="yes"/>
      <point x="713" y="1357"/>
      <point x="646" y="1225"/>
      <point x="584" y="1103" type="curve" smooth="no"/>
      <point x="690" y="1143"/>
      <point x="815" y="1199"/>
      <point x="908" y="1199" type="curve" smooth="yes"/>
      <point x="986" y="1199"/>
      <point x="1025" y="1128"/>
      <point x="1025" y="1058" type="curve" smooth="yes"/>
      <point x="1025" y="986"/>
      <point x="986" y="915"/>
      <point x="907" y="915" type="curve" smooth="yes"/>
      <point x="817" y="915"/>
      <point x="695" y="968"/>
      <point x="592" y="1007" type="curve" smooth="no"/>
      <point x="592" y="581" type="line" smooth="no"/>
      <point x="695" y="620"/>
      <point x="817" y="673"/>
      <point x="907" y="673" type="curve" smooth="yes"/>
      <point x="986" y="673"/>
      <point x="1025" y="602"/>
      <point x="1025" y="530" type="curve" smooth="yes"/>
      <point x="1025" y="460"/>
      <point x="986" y="389"/>
      <point x="908" y="389" type="curve" smooth="yes"/>
      <point x="815" y="389"/>
      <point x="690" y="445"/>
      <point x="584" y="485" type="curve" smooth="no"/>
      <point x="646" y="363"/>
      <point x="713" y="231"/>
      <point x="713" y="130" type="curve" smooth="yes"/>
      <point x="713" y="19"/>
      <point x="617" y="-39"/>
      <point x="523" y="-39" type="curve" smooth="yes"/>
      <point x="430" y="-39"/>
      <point x="338" y="17"/>
      <point x="338" y="131" type="curve" smooth="yes"/>
      <point x="338" y="230"/>
      <point x="399" y="358"/>
      <point x="460" y="478" type="curve" smooth="no"/>
      <point x="342" y="432"/>
      <point x="234" y="389"/>
      <point x="152" y="389" type="curve" smooth="yes"/>
      <point x="74" y="389"/>
      <point x="34" y="461"/>
      <point x="34" y="532" type="curve" smooth="yes"/>
      <point x="34" y="603"/>
      <point x="73" y="673"/>
      <point x="153" y="673" type="curve" smooth="yes"/>
      <point x="233" y="673"/>
      <point x="339" y="631"/>
    </contour>
  </outline>
</glyph>
<glyph name="bullet" format="1">
  <advance width="1120"/>
  <unicode hex="2022"/>
  <outline>
    <contour>
      <point x="1053" y="726" type="curve" smooth="yes"/>
      <point x="1053" y="407"/>
      <point x="947" y="195"/>
      <point x="577" y="195" type="curve" smooth="yes"/>
      <point x="181" y="195"/>
      <point x="71" y="381"/>
      <point x="71" y="726" type="curve" smooth="yes"/>
      <point x="71" y="1102"/>
      <point x="213" y="1254"/>
      <point x="579" y="1254" type="curve" smooth="yes"/>
      <point x="921" y="1254"/>
      <point x="1053" y="1076"/>
    </contour>
  </outline>
</glyph>
<glyph name="guilsinglright" format="1">
  <advance width="1034"/>
  <unicode hex="203a"/>
  <outline>
    <contour>
      <point x="816" y="593" type="curve" smooth="yes"/>
      <point x="290" y="213" type="line" smooth="yes"/>
      <point x="267" y="196"/>
      <point x="245" y="190"/>
      <point x="226" y="190" type="curve" smooth="yes"/>
      <point x="180" y="190"/>
      <point x="146" y="230"/>
      <point x="146" y="277" type="curve" smooth="yes"/>
      <point x="146" y="300"/>
      <point x="151" y="323"/>
      <point x="168" y="345" type="curve" smooth="yes"/>
      <point x="502" y="777" type="line" smooth="no"/>
      <point x="168" y="1209" type="line" smooth="yes"/>
      <point x="150" y="1233"/>
      <point x="144" y="1256"/>
      <point x="144" y="1278" type="curve" smooth="yes"/>
      <point x="144" y="1326"/>
      <point x="178" y="1364"/>
      <point x="224" y="1364" type="curve" smooth="yes"/>
      <point x="242" y="1364"/>
      <point x="266" y="1358"/>
      <point x="290" y="1341" type="curve" smooth="yes"/>
      <point x="816" y="961" type="line" smooth="yes"/>
      <point x="874" y="919"/>
      <point x="905" y="846"/>
      <point x="906" y="775" type="curve" smooth="yes"/>
      <point x="906" y="706"/>
      <point x="876" y="636"/>
    </contour>
  </outline>
</glyph>
<glyph name="trademark" format="1">
  <advance width="1884"/>
  <unicode hex="2122"/>
  <outline>
    <contour>
      <point x="1238" y="657" type="line" smooth="no"/>
      <point x="1160" y="951" type="line" smooth="no"/>
      <point x="1160" y="657" type="line" smooth="no"/>
      <point x="789" y="657" type="line" smooth="no"/>
      <point x="789" y="1595" type="line" smooth="no"/>
      <point x="1223" y="1595" type="line" smooth="no"/>
      <point x="1291" y="1158" type="line" smooth="no"/>
      <point x="1351" y="1595" type="line" smooth="no"/>
      <point x="1791" y="1595" type="line" smooth="no"/>
      <point x="1791" y="657" type="line" smooth="no"/>
      <point x="1421" y="657" type="line" smooth="no"/>
      <point x="1421" y="951" type="line" smooth="no"/>
      <point x="1342" y="657" type="line" smooth="no"/>
    </contour>
    <contour>
      <point x="745" y="1595" type="line" smooth="no"/>
      <point x="745" y="1453" type="line" smooth="no"/>
      <point x="582" y="1453" type="line" smooth="no"/>
      <point x="582" y="657" type="line" smooth="no"/>
      <point x="209" y="657" type="line" smooth="no"/>
      <point x="209" y="1453" type="line" smooth="no"/>
      <point x="47" y="1453" type="line" smooth="no"/>
      <point x="47" y="1595" type="line" smooth="no"/>
    </contour>
  </outline>
</glyph>
